<svg height="640pt" viewBox="-70 -20 640 640" width="640pt" xmlns="http://www.w3.org/2000/svg"><path d="m266.667969 550c0 11.046875-8.957031 20-20 20-11.046875 0-20-8.953125-20-20s8.953125-20 20-20c11.042969 0 20 8.953125 20 20zm0 0"/><path d="m466.667969 0h-440c-16.570313 0-30 13.433594-30 30v540c0 16.566406 13.429687 30 30 30h440c16.566406 0 30-13.433594 30-30v-540c0-16.566406-13.433594-30-30-30zm10 570c0 5.523438-4.480469 10-10 10h-440c-5.523438 0-10-4.476562-10-10v-540c0-5.523438 4.476562-10 10-10h440c5.519531 0 10 4.476562 10 10zm0 0"/><path d="m446.667969 30h-400c-11.046875 0-20 8.953125-20 20v450c0 11.046875 8.953125 20 20 20h400c11.042969 0 20-8.953125 20-20v-450c0-11.046875-8.957031-20-20-20zm-400 470v-450h400v450zm0 0"/></svg>